<?xml version="1.0" encoding="utf-8"?>
<svg width="420px" height="139px" viewBox="0 0 420 139" version="1.1" xmlns="http://www.w3.org/2000/svg">
  <title>Group 20</title>
  <defs>
    <polygon id="path-1" points="0 0 138.397 0 138.397 138.4016 0 138.4016"/>
  </defs>
  <g id="Page-1" stroke="none" stroke-width="1" fill="none" fill-rule="evenodd">
    <g id="Group-20">
      <path d="M135.0709,69.2009 C135.0709,105.5819 105.5779,135.0729 69.1989,135.0729 C32.8189,135.0729 3.3259,105.5819 3.3259,69.2009 C3.3259,32.8189 32.8189,3.3269 69.1989,3.3269 C105.5779,3.3269 135.0709,32.8189 135.0709,69.2009" id="Fill-1" style="fill: rgb(0, 44, 119);"/>
      <g id="Group-5">
        <mask id="mask-2" fill="white">
          <polygon points="0 0 138.397 0 138.397 138.4016 0 138.4016"/>
        </mask>
        <g id="Clip-4"/>
        <path d="M111.044,100.926 C111.907,100.057 112.586,98.991 113.006,97.792 L115.991,88.484 L111.344,88.484 C107.664,94.068 98.83,93.222 91.514,88.67 C79.99,81.49 72.002,77.08 66.348,76.752 C65.553,76.7 64.806,76.736 64.1,76.855 C64.097,76.856 64.092,76.857 64.086,76.857 C64.972,85.694 66.708,91.169 67.689,93.691 C68.119,94.803 68.405,95.34 68.405,95.34 L67.346,95.127 C67.346,95.127 67.015,94.732 66.471,93.901 C65.105,91.805 62.395,86.933 60.243,78.61 C58.62,79.91 57.479,81.788 57.128,83.93 C57.061,84.542 57.03,85.163 57.03,85.775 L59.381,91.259 L62.432,98.378 C61.348,97.97 59.97,97.399 58.385,96.741 C47.537,92.229 25.531,83.1 8.851,90.883 C6.418,84.112 5.084,76.807 5.084,69.196 C5.084,33.8 33.795,5.102 69.195,5.102 C104.596,5.102 133.278,33.8 133.278,69.196 C133.278,74.975 132.079,83.327 131.068,85.901 C127.563,93.849 120.278,98.568 111.044,100.926 M115.002,113.295 C108.043,119.296 98.134,117.996 91.366,116.382 C81.002,113.88 64.453,104.505 60.113,101.644 C60.218,101.517 60.491,101.116 60.597,101.006 C68.686,103.905 101.302,112.099 122.493,101.324 C122.648,101.487 122.788,101.672 122.943,101.83 C123.087,101.983 123.484,102.343 123.645,102.504 C121.388,106.187 117.694,110.592 115.002,113.295 M93.48,127.561 C92.45,127.94 84.713,130.402 78.704,128.736 C77.551,128.4 76.453,128.036 75.322,127.622 C67.096,124.583 59.502,119.545 52.325,113.948 C43.282,106.892 36.709,97.749 24.529,92.028 C24.583,91.911 24.673,91.659 24.71,91.409 C31.464,92.202 39.918,93.037 51.047,99.858 C55.338,102.49 72.969,112.881 75.322,114.037 C80.095,116.336 85.02,118.26 90.094,119.763 C92.939,120.584 95.825,121.276 98.795,121.757 C98.795,121.757 101.162,122.048 101.877,122.117 L102.334,123.192 C100.52,124.326 95.695,126.775 93.48,127.561 M71.123,132.265 C39.479,134.309 15.869,109.953 10.922,94.995 C11.081,94.873 11.431,94.664 11.431,94.664 C19.074,92.501 26.486,96.391 34.894,103.462 C40.978,108.573 53.104,122.582 67.968,129.306 C69.368,130.039 69.938,130.331 71.487,130.87 C71.453,131.039 71.214,131.906 71.123,132.265 M69.195,0 C30.972,0 0,30.983 0,69.196 C0,107.419 30.972,138.402 69.195,138.402 C107.418,138.402 138.397,107.419 138.397,69.196 C138.397,30.983 107.418,0 69.195,0" id="Fill-3" mask="url(#mask-2)" fill="#FFFFFE"/>
      </g>
      <path d="M103.5621,61.6994 C104.3601,56.4654 106.0791,51.5334 108.5501,47.0754 C105.4791,45.2544 102.1401,43.8424 98.6041,42.9114 C95.4161,42.0734 92.0671,41.6264 88.6171,41.6264 C81.8011,41.6264 75.3941,43.3674 69.8131,46.4294 C68.8011,48.2914 67.9341,50.2444 67.2271,52.2714 L67.2091,52.2884 L67.1861,52.3574 C64.8941,52.9834 62.7101,53.8724 60.6681,54.9884 C58.4321,58.3934 57.1301,62.4694 57.1301,66.8494 C57.1301,69.7784 57.7121,72.5714 58.7671,75.1184 C59.1481,76.0424 59.5931,76.9314 60.0951,77.7864 L59.5311,74.3134 C61.1381,73.2054 63.1731,72.6694 65.5401,72.6694 C71.7501,72.6694 80.2581,76.3484 89.3941,83.0014 C89.3181,82.8074 89.2461,82.6104 89.1741,82.4124 C87.7241,78.4314 86.9321,74.1354 86.9321,69.6504 C86.9321,64.4704 87.9891,59.5354 89.8981,55.0534 C86.8681,53.3784 83.5181,52.2064 79.9671,51.6494 L80.1141,51.1744 C84.4201,51.5154 88.5261,52.5674 92.3141,54.2154 C91.0691,57.8744 90.3941,61.7984 90.3941,65.8794 C90.3941,70.4094 91.2261,74.7444 92.7441,78.7414 C98.3671,80.8904 103.3521,84.3244 107.3401,88.6904 L107.8621,88.4554 C104.7861,82.4394 103.0521,75.6284 103.0521,68.4124 C103.0521,66.1294 103.2261,63.8874 103.5621,61.6994" id="Fill-6" fill="#FFFFFE"/>
      <path d="M39.4708,48.0686 C39.8828,52.4996 40.6308,60.0786 40.6308,60.0786 L41.9608,60.0786 C41.9608,60.0786 42.7278,52.4996 43.1508,48.0686 C43.3978,45.3836 44.4628,44.2046 46.3748,43.7386 C47.9458,43.3476 52.8108,42.6456 52.8108,42.6456 L52.8108,41.3996 C52.8108,41.3996 47.7368,40.8566 46.1038,40.3056 C44.8868,39.8886 43.6258,39.4236 42.9908,37.2016 C42.5048,35.4926 41.9198,30.1726 41.9198,30.1726 L41.3088,30.1726 L40.6748,30.1726 C40.6748,30.1726 40.0868,35.4926 39.5978,37.2016 C38.9868,39.4236 37.7238,39.8886 36.4958,40.3056 C34.8628,40.8566 29.7848,41.3996 29.7848,41.3996 L29.7848,42.6456 C29.7848,42.6456 34.6398,43.3476 36.2208,43.7386 C38.1268,44.2046 39.1988,45.3836 39.4708,48.0686" id="Fill-8" fill="#FFFFFE"/>
      <path d="M91.5645,35.4079 L90.4735,40.1969 C87.2775,37.5149 83.2405,35.7999 78.8165,35.5089 L78.6365,34.8039 C80.4275,34.0049 82.4115,33.5609 84.5005,33.5609 C87.0665,33.5609 89.4775,34.2319 91.5645,35.4079" id="Fill-10" fill="#FFFFFE"/>
      <path d="M185.5611,51.7561 L185.5611,65.8811 L196.3571,65.8811 C198.4471,65.8811 200.2161,65.1631 201.6951,63.7581 C203.1611,62.3561 203.8921,60.6901 203.8921,58.8061 C203.8921,56.9341 203.1611,55.2841 201.6951,53.8781 C200.2161,52.4661 198.4471,51.7561 196.3571,51.7561 L185.5611,51.7561 Z M197.3341,35.7181 C204.5491,35.7181 210.4291,37.8991 214.9841,42.2711 C219.4991,46.6361 221.7871,52.1351 221.7871,58.7851 C221.7871,65.4351 219.4991,70.9521 214.9481,75.3301 C210.4141,79.6901 204.5321,81.8751 197.3341,81.8751 L185.5611,81.8751 L185.5611,101.6341 L167.6651,101.6341 L167.6651,35.7181 L197.3341,35.7181 Z" id="Fill-12" style="fill: rgb(0, 44, 119);"/>
      <path d="M266.9434,83.717 C269.3524,81.175 270.5484,78.047 270.5484,74.334 L270.5484,35.719 L288.4304,35.719 L288.4304,74.334 C288.4304,82.62 285.5904,89.536 279.8864,95.138 C274.1804,100.72 266.9904,103.527 258.3234,103.527 C249.6364,103.527 242.4694,100.72 236.7664,95.138 C231.0624,89.536 228.2224,82.62 228.2224,74.334 L228.2224,35.719 L246.0874,35.719 L246.0874,74.334 C246.0874,78.047 247.3014,81.175 249.7054,83.717 C252.0954,86.261 254.9784,87.519 258.3234,87.519 C261.6574,87.519 264.5384,86.261 266.9434,83.717" id="Fill-14" style="fill: rgb(0, 44, 119);"/>
      <path d="M318.0772,82.1486 C321.6632,85.7386 326.1532,87.5186 331.5462,87.5186 C334.8992,87.5186 338.0382,86.8236 341.0192,85.4086 C343.9862,83.9946 346.1302,82.5846 347.4582,81.1336 L349.4462,79.0236 L359.7722,90.3376 C359.5422,90.7046 359.1762,91.1916 358.6902,91.7876 C358.2212,92.3846 357.1152,93.4376 355.3942,94.9526 C353.6572,96.4696 351.7732,97.8096 349.7712,98.9796 C347.7662,100.1466 345.1172,101.1866 341.8202,102.1286 C338.5242,103.0566 335.1082,103.5266 331.5462,103.5266 C321.3102,103.5266 312.6402,100.1016 305.5022,93.2406 C298.3892,86.3946 294.8342,78.2066 294.8342,68.6776 C294.8342,59.1396 298.3892,50.9586 305.5022,44.1006 C312.6402,37.2606 321.3102,33.8256 331.5462,33.8256 C335.0772,33.8256 338.4392,34.2896 341.6252,35.1986 C344.8012,36.1306 347.4412,37.2226 349.4962,38.5136 C351.5712,39.7986 353.3702,41.0956 354.9162,42.3786 C356.4752,43.6716 357.5722,44.7766 358.2692,45.6906 L359.3162,47.0366 L348.4652,58.3426 C348.2882,58.0816 348.0532,57.7726 347.7322,57.3966 C347.4252,57.0096 346.7062,56.3356 345.6252,55.3756 C344.5062,54.4016 343.3742,53.5346 342.1652,52.7966 C340.9842,52.0486 339.4002,51.3696 337.4582,50.7726 C335.5212,50.1666 333.5342,49.8726 331.5462,49.8726 C326.1532,49.8726 321.6632,51.6676 318.0772,55.2356 C314.4892,58.8056 312.6762,63.2906 312.6762,68.6776 C312.6762,74.0666 314.4892,78.5636 318.0772,82.1486" id="Fill-16" style="fill: rgb(0, 44, 119);"/>
      <path d="M383.6886,51.7561 L383.6886,65.8811 L394.4996,65.8811 C396.5936,65.8811 398.3556,65.1631 399.8346,63.7581 C401.2986,62.3561 402.0506,60.6901 402.0506,58.8061 C402.0506,56.9341 401.2986,55.2841 399.8346,53.8781 C398.3556,52.4661 396.5936,51.7561 394.4996,51.7561 L383.6886,51.7561 Z M395.4506,35.7181 C402.7016,35.7181 408.5776,37.8991 413.1046,42.2711 C417.6596,46.6361 419.9086,52.1351 419.9086,58.7851 C419.9086,65.4351 417.6596,70.9521 413.0896,75.3301 C408.5366,79.6901 402.6826,81.8751 395.4506,81.8751 L383.6886,81.8751 L383.6886,101.6341 L365.8026,101.6341 L365.8026,35.7181 L395.4506,35.7181 Z" id="Fill-18" style="fill: rgb(0, 44, 119);"/>
    </g>
  </g>
</svg>